<?xml version="1.0" standalone="no"?><!DOCTYPE svg PUBLIC "-//W3C//DTD SVG 1.1//EN" "http://www.w3.org/Graphics/SVG/1.1/DTD/svg11.dtd"><svg t="1646642127866" class="icon" viewBox="0 0 1024 1024" version="1.1" xmlns="http://www.w3.org/2000/svg" p-id="4050" xmlns:xlink="http://www.w3.org/1999/xlink" width="200" height="200"><defs><style type="text/css"></style></defs><path d="M488.594286 883.565714c-210.651429 0-383.268571-172.617143-383.268572-383.268571C105.325714 289.645714 275.017143 117.028571 488.594286 117.028571c131.657143 0 248.685714 67.291429 321.828571 175.542858l2.925714 2.925714c2.925714 2.925714 2.925714 2.925714 2.925715 5.851428 5.851429 11.702857 2.925714 23.405714-8.777143 29.257143-11.702857 5.851429-23.405714 2.925714-29.257143-8.777143l-2.925714-2.925714-2.925715-2.925714c-61.44-96.548571-169.691429-152.137143-280.868571-152.137143-184.32 0-336.457143 152.137143-336.457143 336.457143s152.137143 336.457143 336.457143 336.457143c102.4 0 198.948571-46.811429 263.314286-125.805715 8.777143-8.777143 23.405714-11.702857 32.182857-2.925714 8.777143 8.777143 11.702857 23.405714 2.925714 32.182857-76.068571 90.697143-184.32 143.36-301.348571 143.36z" fill="#3271B0" p-id="4051"></path><path d="M769.462857 748.982857c-5.851429 0-11.702857-2.925714-17.554286-5.851428L555.885714 547.108571c-8.777143-8.777143-8.777143-23.405714 0-32.182857l219.428572-219.428571c8.777143-8.777143 23.405714-8.777143 32.182857 0 8.777143 8.777143 8.777143 23.405714 0 32.182857l-204.8 204.8 178.468571 178.468571c8.777143 8.777143 8.777143 23.405714 0 32.182858 0 2.925714-5.851429 5.851429-11.702857 5.851428zM611.474286 354.011429c0 17.554286-14.628571 32.182857-32.182857 32.182857-17.554286 0-32.182857-14.628571-32.182858-32.182857 0-17.554286 14.628571-32.182857 32.182858-32.182858 17.554286 0 32.182857 14.628571 32.182857 32.182858z" fill="#3271B0" p-id="4052"></path><path d="M795.794286 538.331429c0 20.48-17.554286 38.034286-38.034286 38.034285-20.48 0-38.034286-17.554286-38.034286-38.034285s17.554286-38.034286 38.034286-38.034286c17.554286 0 38.034286 17.554286 38.034286 38.034286zM947.931429 538.331429c0 20.48-17.554286 38.034286-38.034286 38.034285-20.48 0-38.034286-17.554286-38.034286-38.034285s17.554286-38.034286 38.034286-38.034286c20.48 0 38.034286 17.554286 38.034286 38.034286z" fill="#D71C19" p-id="4053"></path></svg>