<?xml version="1.0" standalone="no"?><!DOCTYPE svg PUBLIC "-//W3C//DTD SVG 1.1//EN" "http://www.w3.org/Graphics/SVG/1.1/DTD/svg11.dtd"><svg t="1646379773765" class="icon" viewBox="0 0 1024 1024" version="1.1" xmlns="http://www.w3.org/2000/svg" p-id="2133" xmlns:xlink="http://www.w3.org/1999/xlink" width="200" height="200"><defs><style type="text/css"></style></defs><path d="M380.416 102.4h263.168a51.2 51.2 0 0 0 0-102.4H380.416a51.2 51.2 0 0 0 0 102.4zM512 204.8a409.6 409.6 0 1 0 409.6 409.6 409.6 409.6 0 0 0-409.6-409.6z m0 716.8a307.2 307.2 0 1 1 307.2-307.2 307.2 307.2 0 0 1-307.2 307.2z" fill="#757575" p-id="2134"></path><path d="M669.696 563.2H563.2V416.768a51.2 51.2 0 0 0-102.4 0V614.4a51.2 51.2 0 0 0 51.2 51.2h157.696a51.2 51.2 0 0 0 0-102.4z" fill="#757575" p-id="2135"></path></svg>